<?xml version="1.0" encoding="UTF-8"?>
<svg version="1.1" xmlns="http://www.w3.org/2000/svg" width="1280" height="236">
<path d="M0 0 C13.11011687 -0.32732084 26.21923056 -0.5745937 39.33263206 -0.72537041 C45.42490385 -0.79781365 51.51434033 -0.89571476 57.60498047 -1.05615234 C108.39465075 -2.35897889 108.39465075 -2.35897889 127.50997925 12.18293762 C131.87466353 15.36801293 136.64219016 17.84823839 141.375 20.4375 C143.25942642 21.50627398 145.14242813 22.57756728 147.0234375 23.65234375 C154.2092098 27.70774022 161.49565426 31.57358165 168.78057861 35.44665527 C178.1201231 40.41501124 187.36591696 45.52669714 196.54296875 50.7890625 C197.41050781 51.28535156 198.27804688 51.78164063 199.171875 52.29296875 C199.9153418 52.7211792 200.65880859 53.14938965 201.42480469 53.59057617 C204.89809672 55.49153511 208.4585424 57.2292712 212 59 C212.33 49.1 212.66 39.2 213 29 C208.05 29 203.1 29 198 29 C193.96826172 27.72167969 193.96826172 27.72167969 190.9296875 25.921875 C190.36333084 25.59882385 189.79697418 25.27577271 189.2134552 24.94293213 C187.41485685 23.90788866 185.6463947 22.83080404 183.875 21.75 C182.62392929 21.01908427 181.37105106 20.29125428 180.11645508 19.56640625 C177.60057999 18.10688685 175.09570375 16.63094372 172.59912109 15.13867188 C168.26528467 12.55251173 163.87533212 10.06803261 159.48291016 7.58300781 C155.64360856 5.40885658 151.82059856 3.20680722 148 1 C148 0.67 148 0.34 148 0 C179.02 0 210.04 0 242 0 C242 36.3 242 72.6 242 110 C233.62493274 105.81246637 225.45335698 101.66656568 217.375 97 C208.66059134 92.01783473 199.86309154 87.21108079 191 82.5 C181.49201483 77.44396931 172.07433583 72.25412144 162.72265625 66.9140625 C154.63235295 62.31347394 146.43578174 57.92155904 138.21887207 53.55307007 C128.87951348 48.58480271 119.63390446 43.47320046 110.45703125 38.2109375 C109.58949219 37.71464844 108.72195312 37.21835937 107.828125 36.70703125 C107.0846582 36.2788208 106.34119141 35.85061035 105.57519531 35.40942383 C104.72538086 34.94431396 103.87556641 34.4792041 103 34 C102.4544043 33.6553067 101.90880859 33.3106134 101.34667969 32.95547485 C95.2790438 29.42075929 89.73879922 29.47951161 82.84375 29.609375 C81.70087524 29.61503479 80.55800049 29.62069458 79.38049316 29.62652588 C75.75322448 29.64880152 72.12696691 29.69898375 68.5 29.75 C66.03126433 29.77007629 63.56251308 29.78832507 61.09375 29.8046875 C55.06215876 29.84863748 49.03115164 29.91546189 43 30 C54.40489161 36.52432441 65.81623247 42.98491491 77.5 49 C86.25165572 53.50651071 94.83100945 58.25727579 103.375 63.14453125 C110.00689479 66.9200257 116.71576921 70.50648985 123.5 74 C131.26821209 78.00020704 138.91538152 82.16179147 146.5 86.5 C155.05044257 91.38814712 163.69770052 96.03257694 172.44750977 100.55297852 C181.74418936 105.36209628 190.92062735 110.37875372 200.09667969 115.41308594 C206.43241287 118.87610862 212.79010422 122.29896599 219.14624023 125.72436523 C220.09958252 126.23942627 221.0529248 126.7544873 222.03515625 127.28515625 C222.8744165 127.73769775 223.71367676 128.19023926 224.57836914 128.65649414 C227.0880435 130.04884599 229.54731373 131.50990217 232 133 C230.58237656 136.04900868 228.89938698 138.62716372 226.875 141.30859375 C226.25633057 142.13093506 225.63766113 142.95327637 225.00024414 143.80053711 C224.34016357 144.67073486 223.68008301 145.54093262 223 146.4375 C222.3186499 147.34056885 221.6372998 148.2436377 220.93530273 149.17407227 C216.56461833 154.95909049 212.16226201 160.71871268 207.73046875 166.45703125 C194.136046 184.05741985 194.136046 184.05741985 181 202 C177.33162752 200.59533971 173.86636047 198.96995639 170.37890625 197.1640625 C169.2906958 196.60098389 168.20248535 196.03790527 167.08129883 195.45776367 C165.92009521 194.85295166 164.7588916 194.24813965 163.5625 193.625 C162.96053802 193.312211 162.35857605 192.999422 161.7383728 192.67715454 C153.00092639 188.13544758 144.32364193 183.4927031 135.69458008 178.74804688 C127.5864887 174.29728724 119.4226826 169.95553251 111.25 165.625 C100.34044839 159.84275656 89.4493675 154.02852806 78.58251953 148.16625977 C70.77030757 143.95195125 62.95019588 139.75265066 55.125 135.5625 C53.97281982 134.94552246 52.82063965 134.32854492 51.63354492 133.69287109 C49.28845511 132.43725561 46.94333008 131.18170617 44.59814453 129.92626953 C39.01916855 126.93966446 33.44074377 123.95203042 27.86248779 120.96408081 C26.13316891 120.03785056 24.40374489 119.1118166 22.67431641 118.18579102 C15.11038637 114.13453425 7.55496388 110.06805747 0 106 C0 94.78 0 83.56 0 72 C17.55966047 80.6962128 34.93151502 89.72537904 52.109375 99.15405273 C60.24445467 103.61023374 68.42980335 107.96828218 76.625 112.3125 C79.38286136 113.77464746 82.14069526 115.23684664 84.8984375 116.69921875 C85.57999405 117.06062454 86.2615506 117.42203033 86.96376038 117.79438782 C97.17602061 123.21228834 107.36005111 128.68290413 117.546875 134.1484375 C121.07182193 136.03851085 124.59815798 137.92596646 128.125 139.8125 C143.10867307 147.82868334 158.06740388 155.88905488 173 164 C175.50367952 161.5713371 177.75142316 159.15279659 179.796875 156.328125 C180.28027344 155.66425781 180.76367188 155.00039062 181.26171875 154.31640625 C181.75285156 153.63449219 182.24398437 152.95257813 182.75 152.25 C183.25660156 151.55261719 183.76320312 150.85523438 184.28515625 150.13671875 C185.52661661 148.42678278 186.76374599 146.71370384 188 145 C185.40167746 142.00855868 182.40412949 140.45960616 178.91796875 138.62890625 C178.31621323 138.31068909 177.7144577 137.99247192 177.09446716 137.66461182 C175.80139492 136.9815168 174.50702183 136.30087964 173.21148682 135.62246704 C170.47334419 134.18849479 167.74155785 132.74261255 165.00946045 131.29716492 C163.62927456 130.56702039 162.24878049 129.83745811 160.86798096 129.10847473 C155.09371833 126.05810956 149.35174233 122.95120044 143.625 119.8125 C141.86462086 118.84888978 140.10420418 117.88534812 138.34375 116.921875 C137.47363281 116.44556641 136.60351562 115.96925781 135.70703125 115.47851562 C130.85309529 112.82741208 125.98892002 110.19522807 121.125 107.5625 C120.12823242 107.02286621 119.13146484 106.48323242 118.10449219 105.92724609 C115.06980771 104.28456032 112.03493722 102.64221876 109 101 C96.4175132 94.1915574 83.84071486 87.37329217 71.28417969 80.51708984 C64.57115415 76.85314693 57.85018072 73.20408019 51.125 69.5625 C50.1345166 69.0260083 49.1440332 68.4895166 48.12353516 67.93676758 C42.96493617 65.14353623 37.80414389 62.35443888 32.640625 59.5703125 C2.07856442 43.07856442 2.07856442 43.07856442 0 41 C-0.08871273 37.97022196 -0.1151935 34.96332978 -0.09765625 31.93359375 C-0.0962413 31.02497086 -0.09482635 30.11634796 -0.09336853 29.18019104 C-0.08775193 26.26592779 -0.07519665 23.35174019 -0.0625 20.4375 C-0.05748714 18.46679798 -0.05292386 16.49609476 -0.04882812 14.52539062 C-0.03777711 9.68356441 -0.02050138 4.84179505 0 0 Z " fill="#CCA45B" transform="translate(0,0)"/>
<path d="M0 0 C6.6 0 13.2 0 20 0 C24.95 14.85 29.9 29.7 35 45 C39.13237016 35.11290485 39.13237016 35.11290485 42.859375 25.1171875 C43.09408508 24.45083282 43.32879517 23.78447815 43.57061768 23.09793091 C44.30032207 21.0247421 45.02545225 18.9499959 45.75 16.875 C46.48960949 14.76458335 47.23021309 12.65452416 47.972229 10.54495239 C48.63551642 8.65811582 49.29587092 6.77024897 49.95605469 4.88232422 C51 2 51 2 52 0 C57.28 0 62.56 0 68 0 C69.47559816 4.01590112 70.95079085 8.03194709 72.42504883 12.04833984 C72.9241767 13.40779604 73.4235174 14.76717411 73.9230957 16.12646484 C74.65114802 18.10752966 75.37846872 20.08886129 76.10546875 22.0703125 C76.34578827 22.72469299 76.58610779 23.37907349 76.83370972 24.05328369 C78.05580522 27.38946423 79.2626723 30.73014983 80.44384766 34.08105469 C80.67252029 34.72871796 80.90119293 35.37638123 81.13679504 36.04367065 C81.76480753 37.82750609 82.38899042 39.61268841 83.01293945 41.39794922 C83.75562152 43.89240201 83.75562152 43.89240201 85 45 C89.95 30.15 94.9 15.3 100 0 C106.6 0 113.2 0 120 0 C118.74987455 5.62556452 117.54529499 10.74884429 115.76928711 16.15625 C115.5560228 16.80944717 115.34275848 17.46264435 115.12303162 18.13563538 C114.42869266 20.25850237 113.72822032 22.37928338 113.02734375 24.5 C112.53906303 25.98680278 112.05107659 27.47370223 111.56336975 28.96069336 C110.54651444 32.05786945 109.52670653 35.15405197 108.50463867 38.24951172 C107.19261001 42.22368986 105.88720068 46.20000485 104.58383846 50.17703247 C103.57987645 53.23857709 102.5729266 56.29913213 101.56500435 59.359375 C101.08213661 60.82638517 100.60010297 62.29367016 100.11890984 63.76123047 C99.44935502 65.80145169 98.77590355 67.84034369 98.10131836 69.87890625 C97.71874374 71.0397876 97.33616913 72.20066895 96.94200134 73.39672852 C96 76 96 76 95 77 C93.5112814 77.08669432 92.018555 77.10703494 90.52734375 77.09765625 C89.62822266 77.09443359 88.72910156 77.09121094 87.80273438 77.08789062 C86.38444336 77.07532227 86.38444336 77.07532227 84.9375 77.0625 C83.5134082 77.05573242 83.5134082 77.05573242 82.06054688 77.04882812 C79.70696935 77.0370011 77.35351523 77.02052025 75 77 C73.0002153 71.36040961 71.00654838 65.71870878 69.01855469 60.07495117 C68.34120296 58.15475969 67.66217438 56.23515888 66.98144531 54.31616211 C66.00405961 51.55996291 65.03269645 48.80170549 64.0625 46.04296875 C63.75626709 45.18350143 63.45003418 44.32403412 63.13452148 43.43852234 C62.85423096 42.63791885 62.57394043 41.83731537 62.28515625 41.01245117 C62.03644775 40.3085173 61.78773926 39.60458344 61.53149414 38.87931824 C61 37 61 37 61 34 C60.34 34 59.68 34 59 34 C58.88834503 34.55320419 58.77669006 35.10640839 58.66165161 35.67637634 C57.52882109 41.05331491 56.04709809 46.15281721 54.1796875 51.31640625 C53.91616486 52.05833725 53.65264221 52.80026825 53.38113403 53.56468201 C52.55071797 55.899093 51.7130093 58.23080554 50.875 60.5625 C50.30550184 62.15933134 49.73648717 63.75633521 49.16796875 65.35351562 C47.78510205 69.23804061 46.39237077 73.11881971 45 77 C38.4 77 31.8 77 25 77 C21.61187377 68.83195076 18.76609661 60.5273016 16.015625 52.12890625 C15.55066987 50.71543933 15.08555882 49.3020237 14.62030029 47.88865662 C13.65338399 44.94869656 12.68889913 42.00795278 11.72607422 39.06665039 C10.49167237 35.29665951 9.25024457 31.52902375 8.0069313 27.76196384 C7.04816339 24.85397023 6.09351131 21.94463821 5.14006805 19.03489494 C4.68372318 17.64416418 4.22599438 16.25388674 3.76685333 14.86407661 C3.12840614 12.92974315 2.49618145 10.99335921 1.86425781 9.05688477 C1.32276093 7.4066909 1.32276093 7.4066909 0.77032471 5.72315979 C0 3 0 3 0 0 Z " fill="#DCB35F" transform="translate(318,54)"/>
<path d="M0 0 C10.69001959 5.18154342 21.03639102 10.7943847 31.32421875 16.734375 C37.27054479 20.1666637 43.25636377 23.52617764 49.25 26.875 C50.29599365 27.45975098 51.3419873 28.04450195 52.41967773 28.64697266 C54.54981954 29.83750426 56.6801098 31.0277703 58.81054688 32.21777344 C65.07726503 35.71953726 71.33975513 39.22886009 77.60205078 42.73852539 C84.02454348 46.33711856 90.45106314 49.92820756 96.88891602 53.49926758 C99.02657449 54.69703367 101.15498214 55.91147914 103.27319336 57.14331055 C108.39377975 60.10967672 113.18776825 62.70719752 118.91772461 64.26757812 C122.26893377 65.90026739 124.80100667 67.97641472 127 71 C127.63675107 73.9020643 127.90455478 75.99499607 127.8984375 78.890625 C127.91810074 79.62530502 127.93776398 80.35998505 127.95802307 81.1169281 C128.09743692 88.76063005 127.62791927 96.38575435 127 104 C123.51819096 103.43650967 120.90100001 102.5937119 117.8671875 100.8046875 C117.07521973 100.34392822 116.28325195 99.88316895 115.46728516 99.40844727 C114.61183105 98.90240967 113.75637695 98.39637207 112.875 97.875 C110.98531767 96.77572168 109.09464324 95.67814752 107.203125 94.58203125 C106.19830078 93.9988916 105.19347656 93.41575195 104.15820312 92.81494141 C98.68209859 89.66795925 93.15223136 86.61849706 87.625 83.5625 C78.24396271 78.36659449 68.88893671 73.12812849 59.55859375 67.84179688 C52.59162746 63.89577655 45.6120632 59.97282095 38.625 56.0625 C37.09238525 55.20446777 37.09238525 55.20446777 35.52880859 54.32910156 C30.58367591 51.56156375 25.63700692 48.79681147 20.68759155 46.03694153 C18.92472957 45.05372659 17.16225217 44.06982597 15.39990234 43.08569336 C13.16924671 41.84030003 10.93782632 40.59627527 8.70556641 39.35375977 C7.70960449 38.79744873 6.71364258 38.2411377 5.6875 37.66796875 C4.80449219 37.17578857 3.92148437 36.6836084 3.01171875 36.17651367 C1 35 1 35 0 34 C-0.08847743 31.47905924 -0.11527301 28.98569107 -0.09765625 26.46484375 C-0.0962413 25.71159317 -0.09482635 24.95834259 -0.09336853 24.18226624 C-0.08775376 21.7673044 -0.07519883 19.35243399 -0.0625 16.9375 C-0.0574869 15.30403779 -0.05292366 13.67057414 -0.04882812 12.03710938 C-0.03777954 8.02470415 -0.02050506 4.01236759 0 0 Z " fill="#CCA45B" transform="translate(0,131)"/>
<path d="M0 0 C6.27 0 12.54 0 19 0 C25.69020136 6.89927016 25.69020136 6.89927016 27.53125 10.07421875 C29.86331751 13.88431786 32.54858094 17.15834063 35.5 20.5 C39.98398894 25.71397815 44.26146499 31.07175951 48.47265625 36.5078125 C50.23639285 38.78072306 51.96322042 40.96322042 54 43 C54.33 28.81 54.66 14.62 55 0 C60.94 0 66.88 0 73 0 C73 25.41 73 50.82 73 77 C55 77 55 77 50.1875 72.5 C49.16170411 70.93621331 48.138206 69.37026267 47.16064453 67.77587891 C44.9312468 64.36472218 42.23176787 61.31305766 39.625 58.1875 C34.8173434 52.29674564 30.09091124 46.34513169 25.42626953 40.34057617 C23.69535048 38.11873551 21.99391532 35.99391532 20 34 C19.67 48.19 19.34 62.38 19 77 C12.73 77 6.46 77 0 77 C0 51.59 0 26.18 0 0 Z " fill="#DCB360" transform="translate(858,54)"/>
<path d="M0 0 C9.0983454 6.1979241 14.73885596 14.93751087 16.80859375 25.71484375 C18.12953354 37.57728774 17.02898071 49.07787867 9.99609375 59.08984375 C3.71715499 66.65596496 -3.49643255 71.5858649 -13.19140625 73.71484375 C-26.5453621 74.88285171 -38.6809571 74.11948007 -49.4140625 65.33984375 C-57.41297127 58.02655574 -61.81904637 49.78252062 -62.39453125 38.859375 C-62.63987281 25.36869467 -60.90489086 14.94906994 -51.33984375 4.73828125 C-37.77389049 -7.96291005 -15.79627449 -9.26376882 0 0 Z M-37.98046875 18.65625 C-43.48371519 25.73744151 -43.91579029 31.85426211 -43.19140625 40.71484375 C-41.65392244 46.78643586 -38.10282829 50.05746968 -33.09375 53.5859375 C-28.14880189 56.5204139 -22.75756226 56.2623345 -17.19140625 55.71484375 C-10.32687096 53.62366081 -6.89977772 49.7655071 -3.44140625 43.58984375 C-1.19913432 37.8471362 -1.20579699 31.8030861 -3.0703125 25.9609375 C-5.7265378 20.07866958 -8.61311458 16.91719637 -14.19140625 13.71484375 C-22.64097779 10.8983199 -31.81084877 11.96126937 -37.98046875 18.65625 Z " fill="#DCB35F" transform="translate(543.19140625,58.28515625)"/>
<path d="M0 0 C49.5339939 0 49.5339939 0 60.75 10.0625 C69.51058976 19.48739989 71.48932528 30.34431032 71.27734375 42.65625 C70.80526227 53.49768335 65.47607148 61.89810487 57.8125 69.25 C42.65731293 81.58249148 15.97080219 77 0 77 C0 51.59 0 26.18 0 0 Z M18 17 C18 31.19 18 45.38 18 60 C33.21392012 60.48577053 33.21392012 60.48577053 46 54 C50.92986567 48.79625291 52.5027484 43.4221751 52.3125 36.37109375 C51.5694109 30.73290524 49.32633989 25.80687031 45 22.0625 C36.15106042 15.97885404 29.13793772 17 18 17 Z " fill="#DCB35F" transform="translate(733,54)"/>
<path d="M0 0 C43.72 0 43.72 0 53 8 C59.13123735 14.2383332 61.55605618 21.33858988 62.375 29.9375 C61.94512215 38.80373065 59.18245508 46.55922507 53 53 C52.01 53.495 52.01 53.495 51 54 C51.62328983 57.17093717 52.70760158 59.36382325 54.50390625 62.0390625 C54.99697266 62.78414062 55.49003906 63.52921875 55.99804688 64.296875 C56.51431641 65.06515625 57.03058594 65.8334375 57.5625 66.625 C58.5887478 68.15610577 59.61109253 69.6898372 60.62890625 71.2265625 C61.08338135 71.90283691 61.53785645 72.57911133 62.00610352 73.27587891 C63 75 63 75 63 77 C44.27168907 78.63599007 44.27168907 78.63599007 39.15234375 74.94921875 C37.40106113 72.35116212 36.17621077 69.89821718 35 67 C34.45601562 66.10667969 33.91203125 65.21335937 33.3515625 64.29296875 C32 62 32 62 32 60 C27.38 60 22.76 60 18 60 C18 65.61 18 71.22 18 77 C12.06 77 6.12 77 0 77 C0 51.59 0 26.18 0 0 Z M18 17 C18 25.58 18 34.16 18 43 C20.35125 43.061875 22.7025 43.12375 25.125 43.1875 C25.85348145 43.21481201 26.58196289 43.24212402 27.33251953 43.27026367 C31.99821112 43.32910681 35.04929879 42.43979316 39 40 C42.20339406 36.36948673 42.5151924 32.89327208 42.359375 28.21875 C41.80079406 24.77011984 40.23593827 22.61924197 38 20 C31.72887692 15.81925128 25.62988261 17 18 17 Z " fill="#DCB35F" transform="translate(614,54)"/>
<path d="M0 0 C3.9452401 2.95648266 6.10477615 6.47819149 8.13671875 10.8671875 C7.64171875 12.3521875 7.64171875 12.3521875 7.13671875 13.8671875 C4.84945732 14.94424204 2.70355551 15.80893039 0.32421875 16.6171875 C-0.30548828 16.85050781 -0.93519531 17.08382812 -1.58398438 17.32421875 C-4.97960156 18.51428815 -7.48325099 19.37298297 -10.86328125 17.8671875 C-11.88347698 16.8877996 -12.8847793 15.88823301 -13.86328125 14.8671875 C-19.22201116 13.0809442 -24.86658767 12.90877458 -29.98828125 15.3671875 C-30.60703125 15.8621875 -31.22578125 16.3571875 -31.86328125 16.8671875 C-31.93584701 18.8230672 -31.93584701 18.8230672 -30.86328125 20.8671875 C-28.3790656 21.91831934 -26.13558203 22.67508237 -23.55078125 23.3671875 C-22.08574706 23.7936171 -20.62090475 24.22070647 -19.15625 24.6484375 C-18.06449463 24.9578125 -18.06449463 24.9578125 -16.95068359 25.2734375 C-6.21514455 28.32710194 3.62335416 31.28871017 10.13671875 40.8671875 C12.81689657 47.20215327 12.78905623 53.68077192 10.265625 60.07421875 C6.63298235 66.64817067 0.88624707 70.54196217 -6.1015625 73.01171875 C-17.08334533 75.50913354 -30.51420713 75.34775205 -40.28515625 69.390625 C-46.5685365 64.893696 -51.22817369 59.54878656 -52.86328125 51.8671875 C-50.42823616 50.860822 -47.99057261 49.86192337 -45.55078125 48.8671875 C-44.5153418 48.43792969 -44.5153418 48.43792969 -43.45898438 48 C-40.44782451 46.77808006 -38.14441141 45.8671875 -34.86328125 45.8671875 C-33.96609375 47.259375 -33.96609375 47.259375 -33.05078125 48.6796875 C-30.44201935 52.48102626 -29.25582991 53.48006687 -24.86328125 54.8671875 C-16.44905201 55.71663391 -16.44905201 55.71663391 -8.86328125 52.8671875 C-8.99556435 50.4199638 -8.99556435 50.4199638 -9.86328125 47.8671875 C-11.90008142 46.51926735 -11.90008142 46.51926735 -14.55078125 45.8046875 C-15.54335937 45.48242188 -16.5359375 45.16015625 -17.55859375 44.828125 C-21.00510015 43.82594938 -24.46372799 42.87663861 -27.92578125 41.9296875 C-37.45409767 39.2371293 -45.13439549 36.25968804 -50.86328125 27.8671875 C-53.06110571 23.47153859 -52.18506344 17.66466746 -51.86328125 12.8671875 C-49.47054903 5.81492411 -44.18541399 1.87533552 -38.12109375 -2.01953125 C-26.34378489 -7.82668181 -11.1074604 -6.75296334 0 0 Z " fill="#DCB35F" transform="translate(1152.86328125,58.1328125)"/>
<path d="M0 0 C18.48 0 36.96 0 56 0 C56 5.61 56 11.22 56 17 C43.46 17 30.92 17 18 17 C18 21.62 18 26.24 18 31 C28.23 31 38.46 31 49 31 C49 36.28 49 41.56 49 47 C38.77 47 28.54 47 18 47 C18 51.29 18 55.58 18 60 C30.54 60 43.08 60 56 60 C56 65.61 56 71.22 56 77 C37.52 77 19.04 77 0 77 C0 51.59 0 26.18 0 0 Z " fill="#DCB35F" transform="translate(990,54)"/>
<path d="M0 0 C22.11 0 44.22 0 67 0 C67 5.61 67 11.22 67 17 C59.08 17 51.16 17 43 17 C43 36.8 43 56.6 43 77 C37.06 77 31.12 77 25 77 C25 57.2 25 37.4 25 17 C16.75 17 8.5 17 0 17 C0 11.39 0 5.78 0 0 Z " fill="#DCB35F" transform="translate(1213,54)"/>
<path d="M0 0 C2.31 0 4.62 0 7 0 C8.98 6.27 10.96 12.54 13 19 C15.475 9.595 15.475 9.595 18 0 C20.31 0 22.62 0 25 0 C25.67286212 2.41509441 26.33846012 4.83180356 27 7.25 C27.19078125 7.93191406 27.3815625 8.61382812 27.578125 9.31640625 C28.49957044 12.70600912 29 15.45778976 29 19 C29.66 19 30.32 19 31 19 C31.16435547 18.07380859 31.16435547 18.07380859 31.33203125 17.12890625 C32.4377266 11.22287499 33.95361435 5.64802441 36 0 C37.98 0 39.96 0 42 0 C39.42486227 10.81845573 36.43213257 21.42227995 33 32 C31.02 32 29.04 32 27 32 C25.04911777 26.38145918 23.36827653 20.78886224 22 15 C20.15696124 18.2951299 19.29081193 21.51959898 18.4375 25.1875 C17.10567823 30.89432177 17.10567823 30.89432177 16 32 C14.00041636 32.04080783 11.99954746 32.04254356 10 32 C7.43146998 25.46260436 5.54533601 18.89437889 3.80664062 12.09570312 C3.2617548 10.04768398 2.63727111 8.02117998 2 6 C1.34 5.67 0.68 5.34 0 5 C0 3.35 0 1.7 0 0 Z " fill="#DCB260" transform="translate(335,165)"/>
<path d="M0 0 C2.97 0 5.94 0 9 0 C11.64 4.95 14.28 9.9 17 15 C19.42277093 11.76963876 21.29437675 8.78383006 23.1875 5.25 C23.71730469 4.26515625 24.24710938 3.2803125 24.79296875 2.265625 C25.19128906 1.51796875 25.58960938 0.7703125 26 0 C28.64 0 31.28 0 34 0 C34 10.56 34 21.12 34 32 C32.02 32 30.04 32 28 32 C27.505 22.1 27.505 22.1 27 12 C24.03 17.28 21.06 22.56 18 28 C14.99054623 24.99054623 13.23995099 22.0254953 11.3125 18.3125 C10.219375 16.229375 9.12625 14.14625 8 12 C7.67 18.6 7.34 25.2 7 32 C5.02 32 3.04 32 1 32 C1 23.09 1 14.18 1 5 C0.34 5 -0.32 5 -1 5 C-0.67 3.35 -0.34 1.7 0 0 Z " fill="#DCB260" transform="translate(1044,165)"/>
<path d="M0 0 C4.15925285 4.36214323 5.15846329 7.62694933 5.5625 13.6875 C4.9344876 19.70013728 2.86298653 23.48702479 -1.4375 27.6875 C-5.49204522 30.09831067 -9.82190906 30.26784935 -14.4375 29.6875 C-19.78490414 27.73364079 -22.89368143 24.77513713 -25.4375 19.6875 C-26.47530601 7.3699336 -26.47530601 7.3699336 -23.6875 3.0625 C-17.40857163 -3.56525772 -7.79750255 -6.21124591 0 0 Z M-19.4375 7.6875 C-20.64460522 11.76148012 -20.71509847 14.59162307 -19.1875 18.5 C-17.65256312 21.87808237 -17.65256312 21.87808237 -14.4375 23.6875 C-8.55481284 24.3533237 -8.55481284 24.3533237 -3.5 21.625 C-1.00282867 18.06842265 -0.4375 16.0286133 -0.4375 11.6875 C-1.53069818 7.58800682 -2.81663679 5.1014088 -6.4375 2.6875 C-12.67510761 1.98325398 -15.6084573 2.23401494 -19.4375 7.6875 Z " fill="#DCB35F" transform="translate(1129.4375,167.3125)"/>
<path d="M0 0 C2.91821463 -0.13510253 5.83017652 -0.2341305 8.75 -0.3125 C9.9875 -0.3753418 9.9875 -0.3753418 11.25 -0.43945312 C17.35979464 -0.56263447 17.35979464 -0.56263447 20.546875 2.23828125 C22.67749231 6.28759963 22.84000327 9.53344414 22 14 C20 17.0625 20 17.0625 18 19 C18.3609375 19.68707031 18.721875 20.37414062 19.09375 21.08203125 C19.5578125 21.98308594 20.021875 22.88414062 20.5 23.8125 C20.9640625 24.70582031 21.428125 25.59914062 21.90625 26.51953125 C23 29 23 29 23 32 C21.02 32 19.04 32 17 32 C16.61328125 31.14535156 16.2265625 30.29070312 15.828125 29.41015625 C15.30734375 28.30542969 14.7865625 27.20070312 14.25 26.0625 C13.73953125 24.96035156 13.2290625 23.85820312 12.703125 22.72265625 C11.15483041 19.5472255 11.15483041 19.5472255 7 19 C7 23.29 7 27.58 7 32 C5.02 32 3.04 32 1 32 C1 23.09 1 14.18 1 5 C0.34 5 -0.32 5 -1 5 C-0.67 3.35 -0.34 1.7 0 0 Z M7 5 C7 7.97 7 10.94 7 14 C10.41656024 14.16677282 10.41656024 14.16677282 14 14 C16.33278733 12.10892859 16.33278733 12.10892859 16.1875 8.9375 C16.33187793 6.11166864 16.33187793 6.11166864 15 5 C12.32941149 4.85884839 9.67567762 4.95752893 7 5 Z " fill="#DCB35F" transform="translate(1161,165)"/>
<path d="M0 0 C2.91722548 -0.08103404 5.83219516 -0.14051081 8.75 -0.1875 C9.575 -0.21263672 10.4 -0.23777344 11.25 -0.26367188 C17.35872096 -0.33756769 17.35872096 -0.33756769 20.515625 1.32421875 C22.7694729 3.86869441 23.00263053 6.02840967 23.3125 9.375 C23 13 23 13 20.875 15.5625 C20.25625 16.366875 19.6375 17.17125 19 18 C19.66357291 21.46532521 21.04943621 24.09887242 22.625 27.25 C24 30 24 30 24 32 C22.02 32 20.04 32 18 32 C16.99491199 30.21118264 15.99607264 28.41885304 15 26.625 C14.1646875 25.12839844 14.1646875 25.12839844 13.3125 23.6015625 C12 21 12 21 12 19 C10.35 19 8.7 19 7 19 C7 23.29 7 27.58 7 32 C5.35 32 3.7 32 2 32 C2 23.09 2 14.18 2 5 C1.34 5 0.68 5 0 5 C0 3.35 0 1.7 0 0 Z M7 5 C7 7.97 7 10.94 7 14 C12.32170494 14.29562367 12.32170494 14.29562367 17 12 C17.41666667 9.5 17.41666667 9.5 17 7 C15.23863645 4.81668311 15.23863645 4.81668311 13.0546875 4.8046875 C10.02734375 4.90234375 10.02734375 4.90234375 7 5 Z " fill="#DBB360" transform="translate(402,165)"/>
<path d="M0 0 C3.3 0 6.6 0 10 0 C11.28718413 4.07342047 12.5687739 8.14854571 13.84521484 12.2253418 C14.2802045 13.61189162 14.71671763 14.99796445 15.15478516 16.38354492 C15.7842914 18.37555392 16.4082939 20.36921559 17.03125 22.36328125 C17.40830078 23.56251221 17.78535156 24.76174316 18.17382812 25.99731445 C19 29 19 29 19 32 C17.02 32 15.04 32 13 32 C12.34 29.36 11.68 26.72 11 24 C7.7 24 4.4 24 1 24 C0.855625 24.94875 0.71125 25.8975 0.5625 26.875 C0 30 0 30 -1 32 C-2.98 32 -4.96 32 -7 32 C-5.48868098 25.64559047 -3.83749731 19.39941346 -1.8125 13.1875 C-0.34731375 8.55238608 0.44965927 4.83383711 0 0 Z M6 10 C5.01 12.97 4.02 15.94 3 19 C4.98 19 6.96 19 9 19 C8.34 16.03 7.68 13.06 7 10 C6.67 10 6.34 10 6 10 Z " fill="#DCB260" transform="translate(917,165)"/>
<path d="M0 0 C6.93 0 13.86 0 21 0 C20.67 1.65 20.34 3.3 20 5 C15.71 5 11.42 5 7 5 C7 7.64 7 10.28 7 13 C10.96 13 14.92 13 19 13 C18.67 14.65 18.34 16.3 18 18 C14.37 18 10.74 18 7 18 C7 20.97 7 23.94 7 27 C11.62 27 16.24 27 21 27 C21 28.65 21 30.3 21 32 C14.4 32 7.8 32 1 32 C0.67 21.44 0.34 10.88 0 0 Z " fill="#DCB360" transform="translate(533,165)"/>
<path d="M0 0 C6.93 0 13.86 0 21 0 C20.67 1.65 20.34 3.3 20 5 C15.71 5 11.42 5 7 5 C7 7.64 7 10.28 7 13 C10.63 13 14.26 13 18 13 C18 14.65 18 16.3 18 18 C14.37 18 10.74 18 7 18 C7 20.97 7 23.94 7 27 C11.62 27 16.24 27 21 27 C21 28.65 21 30.3 21 32 C14.4 32 7.8 32 1 32 C1 23.09 1 14.18 1 5 C0.34 5 -0.32 5 -1 5 C-0.67 3.35 -0.34 1.7 0 0 Z " fill="#DCB25F" transform="translate(659,165)"/>
<path d="M0 0 C6.93 0 13.86 0 21 0 C21 1.65 21 3.3 21 5 C16.71 5 12.42 5 8 5 C8 7.64 8 10.28 8 13 C11.63 13 15.26 13 19 13 C19 14.65 19 16.3 19 18 C15.37 18 11.74 18 8 18 C8 20.97 8 23.94 8 27 C12.62 27 17.24 27 22 27 C21.67 28.65 21.34 30.3 21 32 C14.73 32 8.46 32 2 32 C2 23.09 2 14.18 2 5 C1.34 5 0.68 5 0 5 C0 3.35 0 1.7 0 0 Z " fill="#DBB360" transform="translate(1210,165)"/>
<path d="M0 0 C0.66 0.66 1.32 1.32 2 2 C1.625 4.125 1.625 4.125 1 6 C-2 6 -5 6 -8 6 C-8.66 7.32 -9.32 8.64 -10 10 C-9.34 10.226875 -8.68 10.45375 -8 10.6875 C1.84902309 14.9964476 1.84902309 14.9964476 4.6875 19.9375 C5.10036679 23.98359453 4.34858612 25.69730077 2 29 C-2.34832285 32.20947639 -5.79931263 32.29909136 -10.94140625 31.52734375 C-13.48136484 30.87669022 -15.14868639 29.85131361 -17 28 C-16.67 26.68 -16.34 25.36 -16 24 C-12 24 -12 24 -10 25 C-8.62657169 25.0689472 -7.24997898 25.08467708 -5.875 25.0625 C-4.59625 25.041875 -3.3175 25.02125 -2 25 C-2 23.35 -2 21.7 -2 20 C-2.86625 19.7525 -3.7325 19.505 -4.625 19.25 C-9.53461211 17.43162514 -13.07561985 15.38657022 -16 11 C-16.49819995 7.18046705 -16.30357932 5.48789534 -14.25 2.1875 C-9.8203781 -2.11907685 -5.76016851 -1.02196538 0 0 Z " fill="#DCB35F" transform="translate(723,165)"/>
<path d="M0 0 C0.680625 0.07863281 1.36125 0.15726563 2.0625 0.23828125 C4 0.6875 4 0.6875 7 2.6875 C6.34 4.3375 5.68 5.9875 5 7.6875 C2.03 7.3575 -0.94 7.0275 -4 6.6875 C-4.33 7.6775 -4.66 8.6675 -5 9.6875 C-4.15695312 10.15800781 -3.31390625 10.62851563 -2.4453125 11.11328125 C-1.34960938 11.73589844 -0.25390625 12.35851562 0.875 13 C2.51082031 13.92232422 2.51082031 13.92232422 4.1796875 14.86328125 C7 16.6875 7 16.6875 9 19.6875 C9.46523838 22.67831816 9.57669119 24.7293054 7.984375 27.375 C5.81226037 30.0966858 4.33550144 31.57566619 1 32.6875 C-4.00401435 33.05816773 -6.98301324 32.78631835 -11 29.6875 C-11.66 28.6975 -12.32 27.7075 -13 26.6875 C-12.01 25.2025 -12.01 25.2025 -11 23.6875 C-8.83125748 24.19353992 -7.00032373 24.68733813 -5 25.6875 C-3.00039988 25.727492 -0.99952758 25.73096799 1 25.6875 C1.33 24.3675 1.66 23.0475 2 21.6875 C1.31292969 21.28917969 0.62585938 20.89085937 -0.08203125 20.48046875 C-0.98308594 19.95066406 -1.88414062 19.42085937 -2.8125 18.875 C-3.70582031 18.35292969 -4.59914063 17.83085937 -5.51953125 17.29296875 C-7.71406997 15.87256652 -9.40104851 14.74329478 -11 12.6875 C-11.77333333 5.7275 -11.77333333 5.7275 -9.1875 2.25 C-6.0127434 -0.01768328 -3.77251597 -0.47870941 0 0 Z " fill="#DCB35F" transform="translate(766,164.3125)"/>
<path d="M0 0 C0.680625 0.07863281 1.36125 0.15726563 2.0625 0.23828125 C4 0.6875 4 0.6875 7 2.6875 C6.34 4.3375 5.68 5.9875 5 7.6875 C2.03 7.3575 -0.94 7.0275 -4 6.6875 C-4 8.0075 -4 9.3275 -4 10.6875 C-2.84371094 11.30238281 -2.84371094 11.30238281 -1.6640625 11.9296875 C-0.66117188 12.46851563 0.34171875 13.00734375 1.375 13.5625 C2.37273438 14.09617188 3.37046875 14.62984375 4.3984375 15.1796875 C7 16.6875 7 16.6875 9 18.6875 C9.80123743 25.66971191 9.80123743 25.66971191 6.6875 29.625 C2.4885654 32.84743818 -0.79710998 33.12842288 -6 32.6875 C-9.4375 30.6875 -9.4375 30.6875 -12 28.6875 C-11.67 27.3675 -11.34 26.0475 -11 24.6875 C-7 24.6875 -7 24.6875 -5 25.6875 C-3.00039988 25.727492 -0.99952758 25.73096799 1 25.6875 C1.66 24.0375 2.32 22.3875 3 20.6875 C2.13375 20.44 1.2675 20.1925 0.375 19.9375 C-4.07459725 18.28950102 -7.64341652 16.04408348 -11 12.6875 C-11.68503937 5.60875984 -11.68503937 5.60875984 -9.1875 2.25 C-6.0127434 -0.01768328 -3.77251597 -0.47870941 0 0 Z " fill="#DCB35F" transform="translate(876,164.3125)"/>
<path d="M0 0 C3.0625 -0.625 3.0625 -0.625 7 0 C9.78438501 3.06389856 11.90690139 6.43727895 14 10 C14.52787109 8.9171875 14.52787109 8.9171875 15.06640625 7.8125 C15.56011719 6.884375 16.05382812 5.95625 16.5625 5 C17.03816406 4.071875 17.51382813 3.14375 18.00390625 2.1875 C20 0 20 0 23.71484375 -0.3125 C25.34099609 -0.1578125 25.34099609 -0.1578125 27 0 C25.68968564 2.48034449 24.37686532 4.9593035 23.0625 7.4375 C22.68931641 8.14455078 22.31613281 8.85160156 21.93164062 9.58007812 C19.11328125 14.88671875 19.11328125 14.88671875 18 16 C17.76321284 18.69235776 17.57801975 21.36498156 17.4375 24.0625 C17.39431641 24.82111328 17.35113281 25.57972656 17.30664062 26.36132812 C17.20026367 28.24065438 17.09960066 30.12030244 17 32 C15.02 32 13.04 32 11 32 C10.99742187 31.11699219 10.99484375 30.23398438 10.9921875 29.32421875 C10.73512725 21.34678232 9.53944511 15.88862328 5.27734375 9.109375 C4 7 4 7 4 5 C2.68 5 1.36 5 0 5 C0 3.35 0 1.7 0 0 Z " fill="#DCB35F" transform="translate(960,165)"/>
<path d="M0 0 C7.26 0 14.52 0 22 0 C21.67 1.65 21.34 3.3 21 5 C18.69 5 16.38 5 14 5 C14 13.91 14 22.82 14 32 C12.02 32 10.04 32 8 32 C8 23.09 8 14.18 8 5 C5.36 5 2.72 5 0 5 C0 3.35 0 1.7 0 0 Z " fill="#DCB35F" transform="translate(485,165)"/>
<path d="M0 0 C2.64 0 5.28 0 8 0 C8 8.91 8 17.82 8 27 C12.29 27 16.58 27 21 27 C20.67 28.65 20.34 30.3 20 32 C14.06 32 8.12 32 2 32 C2 23.09 2 14.18 2 5 C1.34 5 0.68 5 0 5 C0 3.35 0 1.7 0 0 Z " fill="#DCB35F" transform="translate(612,165)"/>
<path d="M0 0 C2.31 0 4.62 0 7 0 C7 10.56 7 21.12 7 32 C5.02 32 3.04 32 1 32 C0.67 21.44 0.34 10.88 0 0 Z " fill="#DCB35F" transform="translate(452,165)"/>
<path d="M0 0 C1.65 0.33 3.3 0.66 5 1 C4.67 2.65 4.34 4.3 4 6 C2.35 5.67 0.7 5.34 -1 5 C-0.67 3.35 -0.34 1.7 0 0 Z " fill="#DDB85A" transform="translate(801,191)"/>
<path d="M0 0 C1.65 0 3.3 0 5 0 C5.33 0.99 5.66 1.98 6 3 C5.01 4.485 5.01 4.485 4 6 C2.0625 5.6875 2.0625 5.6875 0 5 C-0.33 4.01 -0.66 3.02 -1 2 C-0.67 1.34 -0.34 0.68 0 0 Z " fill="#DBB55D" transform="translate(1257,191)"/>
</svg>
